[Header]
FileType HTR
DataType HTRS
FileVersion 1
NumSegments 64
NumFrames 3
DataFrameRate 24
EulerRotationOrder ZYX
CalibrationUnits mm
RotationUnits Degrees
GlobalAxisofGravity Y
BoneLengthAxis Y
ScaleFactor 1.0
[SegmentNames&Hierarchy]
Hips	GLOBAL
Spine	Hips
Spine1	Spine
Spine2	Spine1
Neck	Spine2
Head	Neck
LeftEye	Head
RightEye	Head
LeftShoulder	Spine2
LeftArm	LeftShoulder
LeftForeArm	LeftArm
LeftHand	LeftForeArm
LeftHandThumb1	LeftHand
LeftHandThumb2	LeftHandThumb1
LeftHandThumb3	LeftHandThumb2
LeftHandThumb4	LeftHandThumb3
LeftHandIndex1	LeftHand
LeftHandIndex2	LeftHandIndex1
LeftHandIndex3	LeftHandIndex2
LeftHandIndex4	LeftHandIndex3
LeftHandMiddle1	LeftHand
LeftHandMiddle2	LeftHandMiddle1
LeftHandMiddle3	LeftHandMiddle2
LeftHandMiddle4	LeftHandMiddle3
LeftHandRing1	LeftHand
LeftHandRing2	LeftHandRing1
LeftHandRing3	LeftHandRing2
LeftHandRing4	LeftHandRing3
LeftHandPinky1	LeftHand
LeftHandPinky2	LeftHandPinky1
LeftHandPinky3	LeftHandPinky2
LeftHandPinky4	LeftHandPinky3
RightShoulder	Spine2
RightArm	RightShoulder
RightForeArm	RightArm
RightHand	RightForeArm
RightHandPinky1	RightHand
RightHandPinky2	RightHandPinky1
RightHandPinky3	RightHandPinky2
RightHandPinky4	RightHandPinky3
RightHandRing1	RightHand
RightHandRing2	RightHandRing1
RightHandRing3	RightHandRing2
RightHandRing4	RightHandRing3
RightHandMiddle1	RightHand
RightHandMiddle2	RightHandMiddle1
RightHandMiddle3	RightHandMiddle2
RightHandMiddle4	RightHandMiddle3
RightHandIndex1	RightHand
RightHandIndex2	RightHandIndex1
RightHandIndex3	RightHandIndex2
RightHandIndex4	RightHandIndex3
RightHandThumb1	RightHand
RightHandThumb2	RightHandThumb1
RightHandThumb3	RightHandThumb2
RightHandThumb4	RightHandThumb3
LeftUpLeg	Hips
LeftLeg	LeftUpLeg
LeftFoot	LeftLeg
LeftToeBase	LeftFoot
RightUpLeg	Hips
RightLeg	RightUpLeg
RightFoot	RightLeg
RightToeBase	RightFoot
[BasePosition]
Hips	0	0	0	0	0	0	1
Spine	0	0	0	0	0	0	1
Spine1	0	0	0	0	0	0	1
Spine2	0	0	0	0	0	0	1
Neck	0	0	0	0	0	0	1
Head	0	0	0	0	0	0	1
LeftEye	0	0	0	0	0	0	1
RightEye	0	0	0	0	0	0	1
LeftShoulder	0	0	0	0	0	0	1
LeftArm	0	0	0	0	0	0	1
LeftForeArm	0	0	0	0	0	0	1
LeftHand	0	0	0	0	0	0	1
LeftHandThumb1	0	0	0	0	0	0	1
LeftHandThumb2	0	0	0	0	0	0	1
LeftHandThumb3	0	0	0	0	0	0	1
LeftHandThumb4	0	0	0	0	0	0	1
LeftHandIndex1	0	0	0	0	0	0	1
LeftHandIndex2	0	0	0	0	0	0	1
LeftHandIndex3	0	0	0	0	0	0	1
LeftHandIndex4	0	0	0	0	0	0	1
LeftHandMiddle1	0	0	0	0	0	0	1
LeftHandMiddle2	0	0	0	0	0	0	1
LeftHandMiddle3	0	0	0	0	0	0	1
LeftHandMiddle4	0	0	0	0	0	0	1
LeftHandRing1	0	0	0	0	0	0	1
LeftHandRing2	0	0	0	0	0	0	1
LeftHandRing3	0	0	0	0	0	0	1
LeftHandRing4	0	0	0	0	0	0	1
LeftHandPinky1	0	0	0	0	0	0	1
LeftHandPinky2	0	0	0	0	0	0	1
LeftHandPinky3	0	0	0	0	0	0	1
LeftHandPinky4	0	0	0	0	0	0	1
RightShoulder	0	0	0	0	0	0	1
RightArm	0	0	0	0	0	0	1
RightForeArm	0	0	0	0	0	0	1
RightHand	0	0	0	0	0	0	1
RightHandPinky1	0	0	0	0	0	0	1
RightHandPinky2	0	0	0	0	0	0	1
RightHandPinky3	0	0	0	0	0	0	1
RightHandPinky4	0	0	0	0	0	0	1
RightHandRing1	0	0	0	0	0	0	1
RightHandRing2	0	0	0	0	0	0	1
RightHandRing3	0	0	0	0	0	0	1
RightHandRing4	0	0	0	0	0	0	1
RightHandMiddle1	0	0	0	0	0	0	1
RightHandMiddle2	0	0	0	0	0	0	1
RightHandMiddle3	0	0	0	0	0	0	1
RightHandMiddle4	0	0	0	0	0	0	1
RightHandIndex1	0	0	0	0	0	0	1
RightHandIndex2	0	0	0	0	0	0	1
RightHandIndex3	0	0	0	0	0	0	1
RightHandIndex4	0	0	0	0	0	0	1
RightHandThumb1	0	0	0	0	0	0	1
RightHandThumb2	0	0	0	0	0	0	1
RightHandThumb3	0	0	0	0	0	0	1
RightHandThumb4	0	0	0	0	0	0	1
LeftUpLeg	0	0	0	0	0	0	1
LeftLeg	0	0	0	0	0	0	1
LeftFoot	0	0	0	0	0	0	1
LeftToeBase	0	0	0	0	0	0	1
RightUpLeg	0	0	0	0	0	0	1
RightLeg	0	0	0	0	0	0	1
RightFoot	0	0	0	0	0	0	1
RightToeBase	0	0	0	0	0	0	1
[Hips]
15	42.1955719	1009.900391	993.5645142	0.01284266543	4.078710556	1.459515572	1.0
16	38.02329254	1011.190186	1062.678467	0.614633441	5.123381615	2.031325579	1.0
17	32.78549576	1000.059326	1133.873901	1.776096225	6.532254696	3.366712332	1.0
[Spine]
15	0	101.8159943	1.315000057	5.167023659	-5.303750038	-2.546623468	1.0
16	0	101.8159943	1.315000057	5.079993248	-6.391239166	-3.411523581	1.0
17	0	101.8159943	1.315000057	4.46051836	-7.345029831	-5.44175148	1.0
[Spine1]
15	0	100.8349991	-10.00800037	2.055313826	-4.494733334	1.227434754	1.0
16	0	100.8349991	-10.00800037	2.115725517	-5.692421913	1.954504848	1.0
17	0	100.8349991	-10.00800037	2.342363358	-6.758594513	2.937777996	1.0
[Spine2]
15	0	91	-13.73399925	1.983976722	-4.445326805	1.367515922	1.0
16	0	91	-13.73399925	1.990575314	-5.632198811	2.134748936	1.0
17	0	91	-13.73399925	2.109085321	-6.661603451	3.179277658	1.0
[Neck]
15	0	166.7169952	-25.16200066	0.3584292531	3.423754692	-1.34927392	1.0
16	0	166.7169952	-25.16200066	0.3566325903	4.067994595	-1.36116612	1.0
17	0	166.7169952	-25.16200066	0.1215109527	4.705580235	-2.160125971	1.0
[Head]
15	0	96.17900085	16.84999847	-2.358008385	8.358481407	-2.33849144	1.0
16	0	96.17900085	16.84999847	-2.405720234	9.686821938	-2.523282766	1.0
17	0	96.17900085	16.84999847	-3.687347651	10.34879303	-2.560421228	1.0
[LeftEye]
15	30.6760006	64.09500122	92.83599854	0	0	0	1.0
16	30.6760006	64.09500122	92.83599854	0	0	0	1.0
17	30.6760006	64.09500122	92.83599854	0	0	0	1.0
[RightEye]
15	-30.6760006	64.09500122	92.83499908	0	0	0	1.0
16	-30.6760006	64.09500122	92.83499908	0	0	0	1.0
17	-30.6760006	64.09500122	92.83499908	0	0	0	1.0
[LeftShoulder]
15	45.70400238	109.4599991	-26.28000069	2.682065487	-8.855143547	-14.87196064	1.0
16	45.70400238	109.4599991	-26.28000069	2.712497711	-9.241724014	-14.3941927	1.0
17	45.70400238	109.4599991	-26.28000069	2.857595205	-9.983161926	-14.2986536	1.0
[LeftArm]
15	105.923996	-5.24600029	-22.32099915	20.47443008	-15.98114014	-52.6128273	1.0
16	105.923996	-5.24600029	-22.32099915	22.35016823	-19.14419937	-50.47451019	1.0
17	105.923996	-5.24600029	-22.32099915	22.93217659	-21.85214424	-46.69215012	1.0
[LeftForeArm]
15	278.414978	-0.0009999999311	0	9.204477465e-06	-37.39190292	-0.0001995312923	1.0
16	278.414978	-0.0009999999311	0	6.456656138e-06	-45.4569397	-0.0001940093789	1.0
17	278.414978	-0.0009999999311	0	-1.412902839e-05	-52.42292404	-0.0001990784222	1.0
[LeftHand]
15	283.2879944	0	0	4.156282425	4.710102081	-7.139801502	1.0
16	283.2879944	0	0	3.849039078	4.086815834	-4.558168888	1.0
17	283.2879944	0	0	3.551420689	3.740705967	2.621439695	1.0
[LeftHandThumb1]
15	24.6609993	-15.75	26.8239994	5.839803696	2.504242897	11.148386	1.0
16	24.6609993	-15.75	26.8239994	5.839803696	2.504242897	11.148386	1.0
17	24.6609993	-15.75	26.8239994	5.839803696	2.504242897	11.148386	1.0
[LeftHandThumb2]
15	32.29800034	-18.64699936	18.64699936	4.072573185	10.67883778	6.231720448	1.0
16	32.29800034	-18.64699936	18.64699936	2.766459942	10.05057716	6.160114765	1.0
17	32.29800034	-18.64699936	18.64699936	1.30708313	9.194907188	5.892629147	1.0
[LeftHandThumb3]
15	26.52600098	-15.31499958	15.31499958	-0.1994681358	-6.146037102	21.1132164	1.0
16	26.52600098	-15.31499958	15.31499958	0.02947922423	-5.615902424	21.01252174	1.0
17	26.52600098	-15.31499958	15.31499958	0.3285183609	-4.926388264	20.88067627	1.0
[LeftHandThumb4]
15	19.54599953	-11.28499985	11.28499985	0	0	0	1.0
16	19.54599953	-11.28499985	11.28499985	0	0	0	1.0
17	19.54599953	-11.28499985	11.28499985	0	0	0	1.0
[LeftHandIndex1]
15	91.09299469	-5.170999527	22.60099792	-0.8826897144	-2.524595499	-21.14466286	1.0
16	91.09299469	-5.170999527	22.60099792	-0.8845752478	-2.848118305	-20.66831589	1.0
17	91.09299469	-5.170999527	22.60099792	-0.8136663437	-3.016500235	-19.59630013	1.0
[LeftHandIndex2]
15	36.76399994	0	0	-0.2000365555	1.515915513	-15.03422356	1.0
16	36.76399994	0	0	-0.1998960078	1.515406132	-15.0290823	1.0
17	36.76399994	0	0	-0.1989020258	1.511676788	-14.99129677	1.0
[LeftHandIndex3]
15	28.83100128	0	0	-0.2000505328	1.515904427	-15.03422546	1.0
16	28.83100128	0	0	-0.1999193132	1.515401721	-15.02907467	1.0
17	28.83100128	0	0	-0.1989082247	1.511695981	-14.99131393	1.0
[LeftHandIndex4]
15	23.92700005	0	0	0	0	0	1.0
16	23.92700005	0	0	0	0	0	1.0
17	23.92700005	0	0	0	0	0	1.0
[LeftHandMiddle1]
15	95.33399963	0	0	-1.833876014	4.122260571	-29.18697739	1.0
16	95.33399963	0	0	-1.796759248	3.882091761	-28.75687027	1.0
17	95.33399963	0	0	-1.71726191	3.661544085	-27.82357597	1.0
[LeftHandMiddle2]
15	36.98199844	0	0	-0.1245268732	1.199973941	-11.84808636	1.0
16	36.98199844	0	0	-0.1243165657	1.198953032	-11.83789349	1.0
17	36.98199844	0	0	-0.1235740483	1.195477128	-11.80304623	1.0
[LeftHandMiddle3]
15	29.50900078	0	0	-0.1696469486	1.397861242	-13.83855534	1.0
16	29.50900078	0	0	-0.1693929583	1.396841526	-13.82827377	1.0
17	29.50900078	0	0	-0.1685335934	1.393391252	-13.79337692	1.0
[LeftHandMiddle4]
15	28.3390007	0	0	0	0	0	1.0
16	28.3390007	0	0	0	0	0	1.0
17	28.3390007	0	0	0	0	0	1.0
[LeftHandRing1]
15	91.04499817	-0.4390000105	-18.65100098	-2.006309509	6.803189754	-31.17736626	1.0
16	91.04499817	-0.4390000105	-18.65100098	-1.944671392	6.654005527	-30.47668266	1.0
17	91.04499817	-0.4390000105	-18.65100098	-1.872632504	6.52139616	-29.6480999	1.0
[LeftHandRing2]
15	31.54000092	0	0	-0.3324762881	1.942836285	-19.42050171	1.0
16	31.54000092	0	0	-0.3343686163	1.948195457	-19.47632599	1.0
17	31.54000092	0	0	-0.33512941	1.950312614	-19.49838257	1.0
[LeftHandRing3]
15	29.37700081	0	0	-0.4032283723	2.132797003	-21.40994263	1.0
16	29.37700081	0	0	-0.4053174853	2.138132811	-21.46609497	1.0
17	29.37700081	0	0	-0.4061520398	2.140240669	-21.48836327	1.0
[LeftHandRing4]
15	26.47500038	0	0	0	0	0	1.0
16	26.47500038	0	0	0	0	0	1.0
17	26.47500038	0	0	0	0	0	1.0
[LeftHandPinky1]
15	80.77799988	-4.887000084	-38.06099701	-2.368489981	5.668025017	-34.82788467	1.0
16	80.77799988	-4.887000084	-38.06099701	-2.304688931	5.364048958	-34.3327713	1.0
17	80.77799988	-4.887000084	-38.06099701	-2.243334532	4.933398247	-33.76329041	1.0
[LeftHandPinky2]
15	36	0	0	-0.2750667632	1.771652341	-17.64879036	1.0
16	36	0	0	-0.2750829756	1.771683097	-17.6491394	1.0
17	36	0	0	-0.2735064626	1.766795516	-17.59891319	1.0
[LeftHandPinky3]
15	21.14200211	0	0	-0.2750523984	1.771649837	-17.64882088	1.0
16	21.14200211	0	0	-0.2750668526	1.771675467	-17.64914894	1.0
17	21.14200211	0	0	-0.2735078335	1.766792536	-17.59882355	1.0
[LeftHandPinky4]
15	19.75699997	0	0	0	0	0	1.0
16	19.75699997	0	0	0	0	0	1.0
17	19.75699997	0	0	0	0	0	1.0
[RightShoulder]
15	-45.70000076	109.4620056	-26.28000069	1.744616032	4.645199299	14.56665039	1.0
16	-45.70000076	109.4620056	-26.28000069	1.621140838	4.104491234	14.48899746	1.0
17	-45.70000076	109.4620056	-26.28000069	1.436533928	3.391610146	14.0763073	1.0
[RightArm]
15	-105.9280014	-5.248000145	-22.32099915	20.0188942	-1.126557708	57.84243393	1.0
16	-105.9280014	-5.248000145	-22.32099915	19.15242004	-4.809029102	58.25148773	1.0
17	-105.9280014	-5.248000145	-22.32099915	18.21154594	-7.423150539	58.84770584	1.0
[RightForeArm]
15	-278.414978	0	0	-5.015660463e-06	10.32724094	-6.805351859e-06	1.0
16	-278.414978	0	0	-3.231821893e-06	10.61265469	-1.247183036e-06	1.0
17	-278.414978	0	0	5.962206728e-07	11.0343256	2.592973033e-06	1.0
[RightHand]
15	-283.2879944	0	0.0009999999311	8.234332085	7.168900013	11.64397144	1.0
16	-283.2879944	0	0.0009999999311	7.18827343	4.777955055	15.10058689	1.0
17	-283.2879944	0	0.0009999999311	6.047642231	1.462048531	17.21699333	1.0
[RightHandPinky1]
15	-80.76699829	-4.885000229	-38.06000137	-1.507204056	-4.525616646	27.15908813	1.0
16	-80.76699829	-4.885000229	-38.06000137	-1.526256323	-4.306121826	27.27286339	1.0
17	-80.76699829	-4.885000229	-38.06000137	-1.548337817	-4.08178854	27.4065361	1.0
[RightHandPinky2]
15	-36	0	0.0009999999311	-0.5622904897	-2.213470936	28.52318954	1.0
16	-36	0	0.0009999999311	-0.5592031479	-2.207781076	28.44320869	1.0
17	-36	0	0.0009999999311	-0.5523915291	-2.195162058	28.26596832	1.0
[RightHandPinky3]
15	-21.14200211	0	0	-0.1757503748	-1.264896035	15.81985283	1.0
16	-21.14200211	0	0	-0.1739186794	-1.258419871	15.73666859	1.0
17	-21.14200211	0	0	-0.1699730009	-1.244338393	15.55612659	1.0
[RightHandPinky4]
15	-19.75699997	0	0	0	0	0	1.0
16	-19.75699997	0	0	0	0	0	1.0
17	-19.75699997	0	0	0	0	0	1.0
[RightHandRing1]
15	-91.03599548	-0.4390000105	-18.65100098	-1.151046872	-2.81495738	22.06641769	1.0
16	-91.03599548	-0.4390000105	-18.65100098	-1.175267696	-2.725850344	22.42591667	1.0
17	-91.03599548	-0.4390000105	-18.65100098	-1.200763464	-2.718711376	22.80071068	1.0
[RightHandRing2]
15	-31.54000092	0	0	-1.505740762	-3.418927193	47.52853012	1.0
16	-31.54000092	0	0	-1.502886891	-3.416320801	47.48067856	1.0
17	-31.54000092	0	0	-1.499795198	-3.413488388	47.42881393	1.0
[RightHandRing3]
15	-29.37700081	0	0	-0.3764398992	-1.830483794	23.23991776	1.0
16	-29.37700081	0	0	-0.3749088347	-1.826920629	23.19197655	1.0
17	-29.37700081	0	0	-0.3732527494	-1.823061705	23.1401577	1.0
[RightHandRing4]
15	-26.47500038	0	0	0	0	0	1.0
16	-26.47500038	0	0	0	0	0	1.0
17	-26.47500038	0	0	0	0	0	1.0
[RightHandMiddle1]
15	-95.32500458	0	0	-0.9556958079	-0.1141317561	19.20629311	1.0
16	-95.32500458	0	0	-0.9694750905	-0.1399675608	19.41894531	1.0
17	-95.32500458	0	0	-0.9818063974	-0.2954552472	19.60039902	1.0
[RightHandMiddle2]
15	-36.98199844	0	0	-0.8464151025	-2.670711279	35.1641922	1.0
16	-36.98199844	0	0	-0.8474543095	-2.6721766	35.18648911	1.0
17	-36.98199844	0	0	-0.8493105173	-2.674797058	35.22626877	1.0
[RightHandMiddle3]
15	-29.50900078	0	0	-0.2902882695	-1.617291451	20.37508202	1.0
16	-29.50900078	0	0	-0.2909175158	-1.618983984	20.39738274	1.0
17	-29.50900078	0	0	-0.2920495272	-1.622027636	20.4374733	1.0
[RightHandMiddle4]
15	-28.3390007	0	0.0009999999311	0	0	0	1.0
16	-28.3390007	0	0.0009999999311	0	0	0	1.0
17	-28.3390007	0	0.0009999999311	0	0	0	1.0
[RightHandIndex1]
15	-91.08300018	-5.167999744	22.60099792	-0.5318107009	4.136100769	17.03823853	1.0
16	-91.08300018	-5.167999744	22.60099792	-0.5669853091	4.077691555	17.67120361	1.0
17	-91.08300018	-5.167999744	22.60099792	-0.6265832782	4.004673481	18.63350868	1.0
[RightHandIndex2]
15	-36.76399994	0	0	-0.3969224393	-1.877444267	23.87306404	1.0
16	-36.76399994	0	0	-0.397105515	-1.877859712	23.8786869	1.0
17	-36.76399994	0	0	-0.3978028893	-1.879430413	23.8999691	1.0
[RightHandIndex3]
15	-28.83100128	0	0	-0.07933421433	-0.8543695211	10.60991383	1.0
16	-28.83100128	0	0	-0.07941637933	-0.8548176289	10.61552525	1.0
17	-28.83100128	0	0	-0.07973506302	-0.8565142155	10.63677025	1.0
[RightHandIndex4]
15	-23.92700005	0	0	0	0	0	1.0
16	-23.92700005	0	0	0	0	0	1.0
17	-23.92700005	0	0	0	0	0	1.0
[RightHandThumb1]
15	-24.64799881	-15.72700024	26.82600021	12.78110313	-2.167885065	-4.410644054	1.0
16	-24.64799881	-15.72700024	26.82600021	12.78110313	-2.167885065	-4.410644054	1.0
17	-24.64799881	-15.72700024	26.82600021	12.78110313	-2.167885065	-4.410644054	1.0
[RightHandThumb2]
15	-32.29800034	-18.64699936	18.64699936	8.540564537	-20.37883759	-11.09104252	1.0
16	-32.29800034	-18.64699936	18.64699936	8.871941566	-20.05934525	-10.94876957	1.0
17	-32.29800034	-18.64699936	18.64699936	9.385054588	-19.41574478	-10.68791485	1.0
[RightHandThumb3]
15	-26.52600098	-15.31399918	15.31399918	-15.42766953	-4.984862328	-11.20214844	1.0
16	-26.52600098	-15.31399918	15.31399918	-15.43752766	-4.961533546	-11.20951843	1.0
17	-26.52600098	-15.31399918	15.31399918	-15.44646835	-4.940366268	-11.21619511	1.0
[RightHandThumb4]
15	-19.54599953	-11.28499985	11.28499985	0	0	0	1.0
16	-19.54599953	-11.28499985	11.28499985	0	0	0	1.0
17	-19.54599953	-11.28499985	11.28499985	0	0	0	1.0
[LeftUpLeg]
15	82.07800293	-67.51699829	-15.99599934	-4.808592319	7.524003983	-4.224355221	1.0
16	82.07800293	-67.51699829	-15.99599934	1.847620249	9.130485535	-3.9305861	1.0
17	82.07800293	-67.51699829	-15.99599934	6.907847881	11.30461979	-2.93765974	1.0
[LeftLeg]
15	0	-443.7049866	2.845999956	20.03697968	-8.210038185	1.673905611	1.0
16	0	-443.7049866	2.845999956	14.37978268	-8.429596901	3.307869434	1.0
17	0	-443.7049866	2.845999956	11.29894733	-4.521742344	4.400684834	1.0
[LeftFoot]
15	0	-444.2789917	-29.8219986	-15.43985748	-2.826546431	1.548099637	1.0
16	0	-444.2789917	-29.8219986	-17.01690865	-5.633855343	0.8022270799	1.0
17	0	-444.2789917	-29.8219986	-18.86455154	-13.31045341	0.7882499099	1.0
[LeftToeBase]
15	0	-87.28699493	107.1060028	-6.628108501	9.726901453e-07	1.718775593e-07	1.0
16	0	-87.28699493	107.1060028	-6.519796371	1.97325744e-06	3.853935482e-07	1.0
17	0	-87.28699493	107.1060028	-7.036670685	2.524492402e-06	9.944402564e-07	1.0
[RightUpLeg]
15	-82.07800293	-67.51699829	-15.99599934	-38.48051071	-10.3317461	-2.043192387	1.0
16	-82.07800293	-67.51699829	-15.99599934	-42.9385376	-9.437670708	-1.566606998	1.0
17	-82.07800293	-67.51699829	-15.99599934	-40.66215515	-8.274199486	-2.14325285	1.0
[RightLeg]
15	0	-443.7049866	2.861999989	55.00117874	-0.7075111866	-1.812502265	1.0
16	0	-443.7049866	2.861999989	42.89315796	-1.31434989	-3.177277565	1.0
17	0	-443.7049866	2.861999989	23.71330452	-2.072123766	-5.678244114	1.0
[RightFoot]
15	0	-444.2770081	-29.83799934	-6.266949654	0.06600956619	6.573647499	1.0
16	0	-444.2770081	-29.83799934	-8.451498985	0.1583497673	6.750236511	1.0
17	0	-444.2770081	-29.83799934	-7.665063381	0.1509094536	6.865875721	1.0
[RightToeBase]
15	0	-87.28699493	107.1060028	-6.889052391	-1.428021051e-06	-3.238290276e-07	1.0
16	0	-87.28699493	107.1060028	-6.316470623	-8.342707929e-07	-2.998191064e-07	1.0
17	0	-87.28699493	107.1060028	-7.054139137	-7.621828786e-07	6.682333265e-08	1.0
[EndOfFile]
